<svg version="1.1" viewBox="0 0 512 512" xmlns="http://www.w3.org/2000/svg" xmlns:xlink="http://www.w3.org/1999/xlink">
 <defs>
  <clipPath id="clipPath2-7">
   <path transform="translate(-90.595 -41.995)" d="m0 193h817v-193h-817z"/>
  </clipPath>
  <linearGradient id="linearGradient2" x2="1" gradientTransform="matrix(0 -384.79 384.79 0 1756.8 250.03)" gradientUnits="userSpaceOnUse">
   <stop stop-color="#0071bc" offset="0"/>
   <stop stop-color="#41bcec" offset=".7691"/>
   <stop stop-color="#41bcec" offset="1"/>
  </linearGradient>
 </defs>
 <g transform="translate(-1500.8 166.76)">
  <path transform="matrix(3.0602 0 0 -3.0602 1759.7 260.98)" d="m0 0c-0.299-0.209-0.647-0.313-0.996-0.313s-0.698 0.105-0.998 0.315c-0.729 0.512-12.878 9.145-20.195 20.502-2.247-4.028-3.735-8.316-3.735-12.611 0-13.791 11.179-24.971 24.97-24.971s24.971 11.18 24.971 24.971c0 4.29-1.498 8.578-3.758 12.609-7.343-11.352-19.527-19.989-20.259-20.502" clip-path="url(#clipPath2-7)" fill="#040505"/>
  <path d="m1707.4-88.573c-53.329 9.817-102.41 35.412-141.57 74.579-2.4085 2.4083-3.7365 5.6123-3.7365 9.0213 0 3.4029 1.328 6.6038 3.7365 9.0091 2.4082 2.4083 5.6152 3.7364 9.0212 3.7364 3.4121 0 6.6099-1.322 9-3.7242 34.307-34.323 77.03-57.161 123.51-66.662 17.691 23.429 41.113 42.108 49.4 48.357 8.3023-6.2488 31.792-24.943 49.55-48.366 46.484 9.4956 89.21 32.343 123.53 66.665 2.3991 2.3992 5.5971 3.7212 9.009 3.7212 3.4151 0 6.6131-1.3189 9.0214-3.7212 4.9666-4.9666 4.9696-13.061 0-18.04-39.176-39.188-88.292-64.79-141.65-74.591-22.021-26.948-49.461-46.169-49.461-46.169s-27.401 19.206-49.357 46.184m-0.2449 132.44c-32.242 8.5868-61.815 25.491-86.039 49.718-4.9728 4.9728-4.9728 13.061 0 18.033 2.4145 2.4053 5.6152 3.7334 9.0244 3.7334 3.4027 0 6.6007-1.3281 9.0028-3.7334 19.515-19.521 43.032-33.585 68.697-41.456 17.636 23.132 40.712 41.532 48.923 47.723 8.2256-6.1907 31.37-24.604 49.07-47.729 25.675 7.8677 49.198 21.935 68.719 41.465 2.402 2.4083 5.603 3.7303 9.006 3.7303 3.4089 0 6.6099-1.322 9.0212-3.7334 4.9666-4.9727 4.9666-13.061 0-18.033-24.243-24.246-53.843-41.162-86.116-49.743-22.061-27.098-49.7-46.456-49.7-46.456s-27.606 19.346-49.602 46.481m-8.9998 144.24c17.581 29.607 48.77 54.51 58.605 61.928 9.8477-7.4148 41.119-32.324 58.773-61.901-22.611-33.273-58.776-58.599-58.776-58.599s-36.067 25.277-58.602 58.571" fill="url(#linearGradient2)"/>
 </g>
</svg>
